<svg width="64" height="64" viewBox="0 0 64 64" fill="none" xmlns="http://www.w3.org/2000/svg">
<defs><linearGradient id="ig" x1="8" y1="8" x2="56" y2="56"><stop stop-color="#1D4ED8"/><stop offset="1" stop-color="#2EC4B6"/></linearGradient></defs>
<rect x="1" y="1" width="62" height="62" rx="18" fill="#0F172A" stroke="rgba(255,255,255,.10)"/>
<g stroke="url(#ig)" stroke-width="2.4" stroke-linecap="round" stroke-linejoin="round"><path d="M25 18c-5 2-8 7-8 14s3 12 8 14"/><path d="M39 18c5 2 8 7 8 14s-3 12-8 14"/><path d="M26 23h12v18H26z"/><path d="M38 27h6M38 37h6M20 27h6M20 37h6"/><circle cx="16" cy="27" r="2"/><circle cx="16" cy="37" r="2"/><circle cx="48" cy="27" r="2"/><circle cx="48" cy="37" r="2"/></g></svg>